<svg width="16" height="14" viewBox="0 0 16 14" fill="none" xmlns="http://www.w3.org/2000/svg">
<path d="M0 2C0 1.46957 0.210714 0.960859 0.585786 0.585786C0.960859 0.210714 1.46957 0 2 0H14C14.5304 0 15.0391 0.210714 15.4142 0.585786C15.7893 0.960859 16 1.46957 16 2V12C16 12.5304 15.7893 13.0391 15.4142 13.4142C15.0391 13.7893 14.5304 14 14 14H2C1.46957 14 0.960859 13.7893 0.585786 13.4142C0.210714 13.0391 0 12.5304 0 12V2ZM9.5 7.5H6.5C6.36739 7.5 6.24021 7.55268 6.14645 7.64645C6.05268 7.74021 6 7.86739 6 8C6 8.13261 6.05268 8.25979 6.14645 8.35355C6.24021 8.44732 6.36739 8.5 6.5 8.5H9.5C9.63261 8.5 9.75979 8.44732 9.85355 8.35355C9.94732 8.25979 10 8.13261 10 8C10 7.86739 9.94732 7.74021 9.85355 7.64645C9.75979 7.55268 9.63261 7.5 9.5 7.5ZM3.146 7.146C3.09951 7.19249 3.06264 7.24768 3.03748 7.30842C3.01232 7.36916 2.99937 7.43426 2.99937 7.5C2.99937 7.56574 3.01232 7.63084 3.03748 7.69158C3.06264 7.75232 3.09951 7.80751 3.146 7.854C3.23989 7.94789 3.36722 8.00063 3.5 8.00063C3.56574 8.00063 3.63084 7.98768 3.69158 7.96252C3.75232 7.93736 3.80751 7.90049 3.854 7.854L5.854 5.854C5.90056 5.80755 5.93751 5.75238 5.96271 5.69163C5.98792 5.63089 6.00089 5.56577 6.00089 5.5C6.00089 5.43423 5.98792 5.36911 5.96271 5.30837C5.93751 5.24762 5.90056 5.19245 5.854 5.146L3.854 3.146C3.80751 3.09951 3.75232 3.06264 3.69158 3.03748C3.63084 3.01232 3.56574 2.99937 3.5 2.99937C3.43426 2.99937 3.36916 3.01232 3.30842 3.03748C3.24768 3.06264 3.19249 3.09951 3.146 3.146C3.09951 3.19249 3.06264 3.24768 3.03748 3.30842C3.01232 3.36916 2.99937 3.43426 2.99937 3.5C2.99937 3.56574 3.01232 3.63084 3.03748 3.69158C3.06264 3.75232 3.09951 3.80751 3.146 3.854L4.793 5.5L3.146 7.146Z" fill="white"/>
</svg>
